<svg width="340" height="341" viewBox="0 0 340 341" fill="none" xmlns="http://www.w3.org/2000/svg">
<g filter="url(#filter0_d_315_1401)">
<path d="M206.604 203.756C219.135 191.225 239.453 191.225 251.984 203.756L314.083 265.855C326.614 278.386 326.614 298.704 314.083 311.236C301.551 323.767 281.233 323.767 268.702 311.236L206.604 249.137C194.072 236.606 194.072 216.288 206.604 203.756Z" fill="url(#paint0_linear_315_1401)"/>
<rect x="110.519" y="153.051" width="151.999" height="64.1782" rx="32.0891" transform="rotate(-135 110.519 153.051)" fill="url(#paint1_linear_315_1401)"/>
<rect x="124.524" y="167.094" width="236.307" height="64.1782" rx="32.0891" transform="rotate(-45 124.524 167.094)" fill="url(#paint2_linear_315_1401)"/>
<rect x="3" y="288.619" width="151.999" height="64.1782" rx="32.0891" transform="rotate(-45 3 288.619)" fill="url(#paint3_linear_315_1401)"/>
</g>
<defs>
<filter id="filter0_d_315_1401" x="0.191992" y="1.19199" width="339.616" height="339.616" filterUnits="userSpaceOnUse" color-interpolation-filters="sRGB">
<feFlood flood-opacity="0" result="BackgroundImageFix"/>
<feColorMatrix in="SourceAlpha" type="matrix" values="0 0 0 0 0 0 0 0 0 0 0 0 0 0 0 0 0 0 127 0" result="hardAlpha"/>
<feOffset dy="4"/>
<feGaussianBlur stdDeviation="8.05"/>
<feComposite in2="hardAlpha" operator="out"/>
<feColorMatrix type="matrix" values="0 0 0 0 0 0 0 0 0 0 0 0 0 0 0 0 0 0 0.3 0"/>
<feBlend mode="normal" in2="BackgroundImageFix" result="effect1_dropShadow_315_1401"/>
<feBlend mode="normal" in="SourceGraphic" in2="effect1_dropShadow_315_1401" result="shape"/>
</filter>
<linearGradient id="paint0_linear_315_1401" x1="283.034" y1="234.806" x2="237.653" y2="280.186" gradientUnits="userSpaceOnUse">
<stop stop-color="#D74B76"/>
<stop offset="1" stop-color="#C81A55"/>
</linearGradient>
<linearGradient id="paint1_linear_315_1401" x1="186.25" y1="217.23" x2="186.786" y2="153.051" gradientUnits="userSpaceOnUse">
<stop stop-color="#EE6158"/>
<stop offset="1" stop-color="#C44545"/>
</linearGradient>
<linearGradient id="paint2_linear_315_1401" x1="124.524" y1="199.183" x2="360.831" y2="199.183" gradientUnits="userSpaceOnUse">
<stop stop-color="#CC1A3E"/>
<stop offset="1" stop-color="#F7B251"/>
</linearGradient>
<linearGradient id="paint3_linear_315_1401" x1="154.999" y1="320.321" x2="3" y2="321.095" gradientUnits="userSpaceOnUse">
<stop stop-color="#552265"/>
<stop offset="1" stop-color="#400C4C"/>
</linearGradient>
</defs>
</svg>
