<svg width="54" height="54" viewBox="0 0 54 54" fill="none" xmlns="http://www.w3.org/2000/svg">
<path fill-rule="evenodd" clip-rule="evenodd" d="M2.74219 14.8184V8.75391C2.74219 5.43902 5.43908 2.74219 8.75391 2.74219H14.8184C15.5756 2.74219 16.1895 2.12831 16.1895 1.37109C16.1895 0.613881 15.5756 0 14.8184 0H8.75391C3.92702 0 0 3.92697 0 8.75391V14.8184C0 15.5756 0.613881 16.1895 1.37109 16.1895C2.12831 16.1895 2.74219 15.5756 2.74219 14.8184ZM14.8184 51.2578C15.5756 51.2578 16.1895 51.8717 16.1895 52.6289C16.1895 53.3861 15.5756 54 14.8184 54H8.75391C3.92702 54 0 50.073 0 45.2461V39.1816C0 38.4244 0.613881 37.8105 1.37109 37.8105C2.12831 37.8105 2.74219 38.4244 2.74219 39.1816V45.2461C2.74219 48.5609 5.43908 51.2578 8.75391 51.2578H14.8184ZM54 39.1816V45.2461C54 50.073 50.073 54 45.2461 54H39.1816C38.4244 54 37.8105 53.3861 37.8105 52.6289C37.8105 51.8717 38.4244 51.2578 39.1816 51.2578H45.2461C48.5609 51.2578 51.2578 48.5609 51.2578 45.2461V39.1816C51.2578 38.4244 51.8717 37.8105 52.6289 37.8105C53.3861 37.8105 54 38.4244 54 39.1816ZM54 8.75391V14.8184C54 15.5756 53.3861 16.1895 52.6289 16.1895C51.8717 16.1895 51.2578 15.5756 51.2578 14.8184V8.75391C51.2578 5.43902 48.5609 2.74219 45.2461 2.74219H39.1816C38.4244 2.74219 37.8105 2.12831 37.8105 1.37109C37.8105 0.613881 38.4244 0 39.1816 0H45.2461C50.073 0 54 3.92697 54 8.75391ZM36.4621 39.9112C37.0397 39.3776 37.0754 38.4768 36.5419 37.8991C36.0082 37.3215 35.1075 37.2858 34.5298 37.8193C32.4744 39.7179 29.8002 40.7636 27 40.7636C24.1997 40.7636 21.5256 39.7179 19.4701 37.8193C18.8924 37.2858 17.9917 37.3215 17.4581 37.8991C16.9246 38.4768 16.9603 39.3776 17.5379 39.9112C20.1211 42.2972 23.4814 43.6112 27 43.6112C30.5186 43.6112 33.8789 42.2972 36.4621 39.9112ZM29.8477 20.3555V30.4805C29.8477 32.4869 28.2154 34.1191 26.209 34.1191H25.0488C24.2625 34.1191 23.625 33.4817 23.625 32.6953C23.625 31.9089 24.2625 31.2715 25.0488 31.2715H26.209C26.6452 31.2715 27 30.9166 27 30.4805V20.3555C27 19.5691 27.6375 18.9316 28.4238 18.9316C29.2102 18.9316 29.8477 19.5691 29.8477 20.3555ZM39.6562 24.3369V20.2764C39.6562 19.5337 39.0542 18.9316 38.3115 18.9316C37.5689 18.9316 36.9668 19.5337 36.9668 20.2764V24.3369C36.9668 25.0796 37.5689 25.6816 38.3115 25.6816C39.0542 25.6816 39.6562 25.0796 39.6562 24.3369ZM14.6602 24.3369C14.6602 25.0796 15.2622 25.6816 16.0049 25.6816C16.7475 25.6816 17.3496 25.0796 17.3496 24.3369V20.2764C17.3496 19.5337 16.7475 18.9316 16.0049 18.9316C15.2622 18.9316 14.6602 19.5337 14.6602 20.2764V24.3369Z" fill="white" fill-opacity="0.5"/>
</svg>
